<?xml version="1.0" standalone="no"?>
<svg xmlns:xlink="http://www.w3.org/1999/xlink" id="wave" style="transform:rotate(0deg); transition: 0.3s" viewBox="0 0 1440 490" version="1.1" xmlns="http://www.w3.org/2000/svg"><defs><linearGradient id="sw-gradient-0" x1="0" x2="0" y1="1" y2="0"><stop stop-color="rgba(52.686, 52.686, 52.686, 1)" offset="0%"/><stop stop-color="rgba(57, 60, 59, 1)" offset="100%"/></linearGradient></defs><path style="transform:translate(0, 0px); opacity:1" fill="url(#sw-gradient-0)" d="M0,245L80,204.2C160,163,320,82,480,73.5C640,65,800,131,960,171.5C1120,212,1280,229,1440,269.5C1600,310,1760,376,1920,408.3C2080,441,2240,441,2400,408.3C2560,376,2720,310,2880,236.8C3040,163,3200,82,3360,81.7C3520,82,3680,163,3840,179.7C4000,196,4160,147,4320,171.5C4480,196,4640,294,4800,302.2C4960,310,5120,229,5280,187.8C5440,147,5600,147,5760,138.8C5920,131,6080,114,6240,89.8C6400,65,6560,33,6720,65.3C6880,98,7040,196,7200,236.8C7360,278,7520,261,7680,228.7C7840,196,8000,147,8160,106.2C8320,65,8480,33,8640,40.8C8800,49,8960,98,9120,130.7C9280,163,9440,180,9600,163.3C9760,147,9920,98,10080,138.8C10240,180,10400,310,10560,318.5C10720,327,10880,212,11040,163.3C11200,114,11360,131,11440,138.8L11520,147L11520,490L11440,490C11360,490,11200,490,11040,490C10880,490,10720,490,10560,490C10400,490,10240,490,10080,490C9920,490,9760,490,9600,490C9440,490,9280,490,9120,490C8960,490,8800,490,8640,490C8480,490,8320,490,8160,490C8000,490,7840,490,7680,490C7520,490,7360,490,7200,490C7040,490,6880,490,6720,490C6560,490,6400,490,6240,490C6080,490,5920,490,5760,490C5600,490,5440,490,5280,490C5120,490,4960,490,4800,490C4640,490,4480,490,4320,490C4160,490,4000,490,3840,490C3680,490,3520,490,3360,490C3200,490,3040,490,2880,490C2720,490,2560,490,2400,490C2240,490,2080,490,1920,490C1760,490,1600,490,1440,490C1280,490,1120,490,960,490C800,490,640,490,480,490C320,490,160,490,80,490L0,490Z"/><defs><linearGradient id="sw-gradient-1" x1="0" x2="0" y1="1" y2="0"><stop stop-color="rgba(57, 60, 59, 1)" offset="0%"/><stop stop-color="rgba(57, 60, 59, 1)" offset="100%"/></linearGradient></defs><path style="transform:translate(0, 50px); opacity:0.9" fill="url(#sw-gradient-1)" d="M0,0L80,32.7C160,65,320,131,480,147C640,163,800,131,960,122.5C1120,114,1280,131,1440,187.8C1600,245,1760,343,1920,318.5C2080,294,2240,147,2400,147C2560,147,2720,294,2880,310.3C3040,327,3200,212,3360,171.5C3520,131,3680,163,3840,187.8C4000,212,4160,229,4320,196C4480,163,4640,82,4800,98C4960,114,5120,229,5280,269.5C5440,310,5600,278,5760,245C5920,212,6080,180,6240,179.7C6400,180,6560,212,6720,253.2C6880,294,7040,343,7200,310.3C7360,278,7520,163,7680,130.7C7840,98,8000,147,8160,187.8C8320,229,8480,261,8640,236.8C8800,212,8960,131,9120,98C9280,65,9440,82,9600,122.5C9760,163,9920,229,10080,261.3C10240,294,10400,294,10560,285.8C10720,278,10880,261,11040,253.2C11200,245,11360,245,11440,245L11520,245L11520,490L11440,490C11360,490,11200,490,11040,490C10880,490,10720,490,10560,490C10400,490,10240,490,10080,490C9920,490,9760,490,9600,490C9440,490,9280,490,9120,490C8960,490,8800,490,8640,490C8480,490,8320,490,8160,490C8000,490,7840,490,7680,490C7520,490,7360,490,7200,490C7040,490,6880,490,6720,490C6560,490,6400,490,6240,490C6080,490,5920,490,5760,490C5600,490,5440,490,5280,490C5120,490,4960,490,4800,490C4640,490,4480,490,4320,490C4160,490,4000,490,3840,490C3680,490,3520,490,3360,490C3200,490,3040,490,2880,490C2720,490,2560,490,2400,490C2240,490,2080,490,1920,490C1760,490,1600,490,1440,490C1280,490,1120,490,960,490C800,490,640,490,480,490C320,490,160,490,80,490L0,490Z"/><defs><linearGradient id="sw-gradient-2" x1="0" x2="0" y1="1" y2="0"><stop stop-color="rgba(57, 60, 59, 1)" offset="0%"/><stop stop-color="rgba(57, 60, 59, 1)" offset="100%"/></linearGradient></defs><path style="transform:translate(0, 100px); opacity:0.8" fill="url(#sw-gradient-2)" d="M0,392L80,326.7C160,261,320,131,480,98C640,65,800,131,960,163.3C1120,196,1280,196,1440,179.7C1600,163,1760,131,1920,163.3C2080,196,2240,294,2400,285.8C2560,278,2720,163,2880,106.2C3040,49,3200,49,3360,57.2C3520,65,3680,82,3840,106.2C4000,131,4160,163,4320,220.5C4480,278,4640,359,4800,334.8C4960,310,5120,180,5280,138.8C5440,98,5600,147,5760,196C5920,245,6080,294,6240,294C6400,294,6560,245,6720,187.8C6880,131,7040,65,7200,57.2C7360,49,7520,98,7680,163.3C7840,229,8000,310,8160,351.2C8320,392,8480,392,8640,326.7C8800,261,8960,131,9120,98C9280,65,9440,131,9600,204.2C9760,278,9920,359,10080,392C10240,425,10400,408,10560,383.8C10720,359,10880,327,11040,285.8C11200,245,11360,196,11440,171.5L11520,147L11520,490L11440,490C11360,490,11200,490,11040,490C10880,490,10720,490,10560,490C10400,490,10240,490,10080,490C9920,490,9760,490,9600,490C9440,490,9280,490,9120,490C8960,490,8800,490,8640,490C8480,490,8320,490,8160,490C8000,490,7840,490,7680,490C7520,490,7360,490,7200,490C7040,490,6880,490,6720,490C6560,490,6400,490,6240,490C6080,490,5920,490,5760,490C5600,490,5440,490,5280,490C5120,490,4960,490,4800,490C4640,490,4480,490,4320,490C4160,490,4000,490,3840,490C3680,490,3520,490,3360,490C3200,490,3040,490,2880,490C2720,490,2560,490,2400,490C2240,490,2080,490,1920,490C1760,490,1600,490,1440,490C1280,490,1120,490,960,490C800,490,640,490,480,490C320,490,160,490,80,490L0,490Z"/></svg>